<svg width="17" height="23" viewBox="0 0 17 23" fill="none" xmlns="http://www.w3.org/2000/svg">
<path d="M3.68524 3.03369C3.68526 2.67731 4.1152 2.49946 4.36688 2.75146L13.1931 11.5972C13.9714 12.3777 13.4186 13.7085 12.3181 13.7085H10.237L10.5446 14.439L11.8249 17.48C11.9947 17.8836 11.997 18.3281 11.8317 18.7349C11.6655 19.1424 11.3528 19.4582 10.947 19.6284C10.7411 19.7144 10.5281 19.7573 10.3102 19.7573C9.6474 19.7573 9.05458 19.3633 8.79755 18.7524V18.7515L7.45184 15.5532L7.16669 14.8755L6.61688 15.3638L5.74188 16.1401C4.94356 16.8461 3.6854 16.2801 3.68524 15.2134V3.03369Z" stroke="white" stroke-width="1.05295"/>
</svg>
