<svg width="30" height="24" viewBox="0 0 30 24" fill="none" xmlns="http://www.w3.org/2000/svg">
<circle cx="11.6326" cy="3.67347" r="3.67347" fill="white"/>
<circle cx="26.3265" cy="7.34693" r="3.67347" fill="white"/>
<circle cx="17.7551" cy="19.5918" r="3.67347" fill="white"/>
<path d="M17.1429 21.4286L16.56 21.616L16.9534 22.8399L17.6557 21.7631L17.1429 21.4286ZM11.6327 4.28577L12.2155 4.09841L11.9178 3.17223L11.2116 3.84131L11.6327 4.28577ZM0 15.3062L6.87565 13.6616L2.01357 8.5294L0 15.3062ZM25.8137 7.01254L16.63 21.0942L17.6557 21.7631L26.8394 7.68144L25.8137 7.01254ZM17.7257 21.2413L12.2155 4.09841L11.0498 4.47312L16.56 21.616L17.7257 21.2413ZM11.2116 3.84131L3.57908 11.0721L4.42122 11.961L12.0537 4.73023L11.2116 3.84131Z" fill="white"/>
</svg>
