<svg width="35" height="33" viewBox="0 0 35 33" fill="none" xmlns="http://www.w3.org/2000/svg">
<path d="M17.4748 0.207047C8.19873 0.219645 0.703125 7.72365 0.703125 16.9997C0.703125 22.3747 3.23105 27.1618 7.16152 30.2357L5.58682 32.2513C5.41465 32.4738 5.57422 32.7972 5.85137 32.793L12.8641 32.7594C13.0824 32.7594 13.242 32.5536 13.1874 32.3437L11.5287 25.5283C11.5137 25.4669 11.4817 25.4109 11.4363 25.3669C11.391 25.3228 11.3341 25.2925 11.2722 25.2793C11.2104 25.2662 11.1461 25.2707 11.0867 25.2925C11.0273 25.3143 10.9753 25.3523 10.9366 25.4024L9.22754 27.5902C8.79922 27.2542 8.3877 26.8889 7.99717 26.4984C6.7694 25.2748 5.79105 23.8244 5.1165 22.2278C4.41523 20.5733 4.0625 18.8138 4.0625 16.9997C4.0625 15.1857 4.41523 13.4262 5.1165 11.7717C5.79258 10.1718 6.7626 8.73566 7.99717 7.50109C9.23174 6.26652 10.6679 5.2965 12.2678 4.62043C13.9265 3.91916 15.6859 3.56642 17.5 3.56642C19.3141 3.56642 21.0735 3.91916 22.728 4.62043C24.3279 5.2965 25.7641 6.26652 26.9986 7.50109C28.2332 8.73566 29.2032 10.1718 29.8793 11.7717C30.5806 13.4262 30.9333 15.1857 30.9333 16.9997C30.9333 18.8138 30.5806 20.5733 29.8793 22.2278C29.2048 23.8244 28.2264 25.2748 26.9986 26.4984C26.6837 26.8133 26.3562 27.1072 26.016 27.3886C25.9479 27.4439 25.9043 27.524 25.8949 27.6113C25.8855 27.6986 25.9109 27.7861 25.9656 27.8547L27.6201 29.9753C27.7377 30.1223 27.9519 30.1475 28.0988 30.0299C31.8823 26.9477 34.2969 22.2571 34.2969 16.9997C34.2969 7.71525 26.7635 0.194449 17.4748 0.207047Z" fill="white"/>
</svg>
