<svg width="34" height="33" viewBox="0 0 34 33" fill="none" xmlns="http://www.w3.org/2000/svg">
<path d="M16.7717 1.58031e-05C7.49561 0.0126135 0 7.51662 0 16.7927C0 22.1677 2.52793 26.9548 6.4584 30.0286L4.88369 32.0443C4.71152 32.2668 4.87109 32.5902 5.14824 32.586L12.1609 32.5524C12.3793 32.5524 12.5389 32.3466 12.4843 32.1366L10.8256 25.3213C10.8106 25.2599 10.7786 25.2039 10.7332 25.1599C10.6879 25.1158 10.631 25.0855 10.5691 25.0723C10.5073 25.0591 10.443 25.0637 10.3836 25.0855C10.3242 25.1072 10.2722 25.1453 10.2335 25.1953L8.52441 27.3831C8.09609 27.0472 7.68457 26.6819 7.29404 26.2913C6.06627 25.0678 5.08793 23.6174 4.41338 22.0207C3.71211 20.3662 3.35938 18.6068 3.35938 16.7927C3.35938 14.9786 3.71211 13.2192 4.41338 11.5647C5.08945 9.96476 6.05947 8.52863 7.29404 7.29406C8.52861 6.05949 9.96475 5.08947 11.5646 4.41339C13.2233 3.71213 14.9828 3.35939 16.7969 3.35939C18.6109 3.35939 20.3704 3.71213 22.0249 4.41339C23.6248 5.08947 25.0609 6.05949 26.2955 7.29406C27.5301 8.52863 28.5001 9.96476 29.1762 11.5647C29.8774 13.2192 30.2302 14.9786 30.2302 16.7927C30.2302 18.6068 29.8774 20.3662 29.1762 22.0207C28.5016 23.6174 27.5233 25.0678 26.2955 26.2913C25.9806 26.6063 25.653 26.9002 25.3129 27.1816C25.2447 27.2369 25.2012 27.3169 25.1918 27.4042C25.1823 27.4915 25.2078 27.579 25.2625 27.6477L26.917 29.7683C27.0346 29.9153 27.2487 29.9404 27.3957 29.8229C31.1792 26.7406 33.5938 22.0501 33.5938 16.7927C33.5938 7.50822 26.0604 -0.0125819 16.7717 1.58031e-05Z" fill="#767676"/>
</svg>
